<?xml version="1.0" encoding="UTF-8" standalone="no"?>
<!DOCTYPE svg PUBLIC "-//W3C//DTD SVG 1.1//EN"
 "http://www.w3.org/Graphics/SVG/1.1/DTD/svg11.dtd">
<!-- Generated by graphviz version 12.2.1 (20241206.2353)
 -->
<!-- Title: grounding Pages: 1 -->
<svg width="1011pt" height="712pt"
 viewBox="0.00 0.00 1010.75 711.57" xmlns="http://www.w3.org/2000/svg" xmlns:xlink="http://www.w3.org/1999/xlink">
<g id="graph0" class="graph" transform="scale(1 1) rotate(0) translate(4 707.57)">
<title>grounding</title>
<polygon fill="#0f1419" stroke="none" points="-4,4 -4,-707.57 1006.75,-707.57 1006.75,4 -4,4"/>
<!-- Q -->
<g id="node1" class="node">
<title>Q</title>
<path fill="#21262d" stroke="#3b4654" stroke-width="1.4" d="M354,-703.57C354,-703.57 198,-703.57 198,-703.57 192,-703.57 186,-697.57 186,-691.57 186,-691.57 186,-679.57 186,-679.57 186,-673.57 192,-667.57 198,-667.57 198,-667.57 354,-667.57 354,-667.57 360,-667.57 366,-673.57 366,-679.57 366,-679.57 366,-691.57 366,-691.57 366,-697.57 360,-703.57 354,-703.57"/>
<text text-anchor="middle" x="276" y="-680.55" font-family="Helvetica,sans-Serif" font-size="12.00" fill="#e6edf3">developer&#39;s question</text>
</g>
<!-- P0 -->
<g id="node2" class="node">
<title>P0</title>
<path fill="#1b4d6b" stroke="#1f6feb" stroke-width="1.4" d="M354,-602.58C354,-602.58 198,-602.58 198,-602.58 192,-602.58 186,-596.58 186,-590.58 186,-590.58 186,-570.36 186,-570.36 186,-564.36 192,-558.36 198,-558.36 198,-558.36 354,-558.36 354,-558.36 360,-558.36 366,-564.36 366,-570.36 366,-570.36 366,-590.58 366,-590.58 366,-596.58 360,-602.58 354,-602.58"/>
<text text-anchor="middle" x="276" y="-581.82" font-family="Helvetica,sans-Serif" font-size="12.00" fill="#cfe9ff">P0 · Interpret</text>
<text text-anchor="middle" x="276" y="-569.07" font-family="Helvetica,sans-Serif" font-size="12.00" fill="#cfe9ff">recall what you know</text>
</g>
<!-- Q&#45;&gt;P0 -->
<g id="edge1" class="edge">
<title>Q&#45;&gt;P0</title>
<path fill="none" stroke="#aab6c2" stroke-width="2.4" d="M276,-667.08C276,-652.98 276,-632.73 276,-615.46"/>
<polygon fill="#aab6c2" stroke="#aab6c2" stroke-width="2.4" points="279.15,-615.62 276,-606.62 272.85,-615.62 279.15,-615.62"/>
</g>
<!-- P1 -->
<g id="node3" class="node">
<title>P1</title>
<path fill="#2d3340" stroke="#3b4654" stroke-width="1.4" d="M354,-469.12C354,-469.12 198,-469.12 198,-469.12 192,-469.12 186,-463.12 186,-457.12 186,-457.12 186,-436.9 186,-436.9 186,-430.9 192,-424.9 198,-424.9 198,-424.9 354,-424.9 354,-424.9 360,-424.9 366,-430.9 366,-436.9 366,-436.9 366,-457.12 366,-457.12 366,-463.12 360,-469.12 354,-469.12"/>
<text text-anchor="middle" x="276" y="-448.36" font-family="Helvetica,sans-Serif" font-size="12.00" fill="#e6edf3">P1 · Resolve</text>
<text text-anchor="middle" x="276" y="-435.61" font-family="Helvetica,sans-Serif" font-size="12.00" fill="#e6edf3">identity + pinned SHA</text>
</g>
<!-- P0&#45;&gt;P1 -->
<g id="edge2" class="edge">
<title>P0&#45;&gt;P1</title>
<path fill="none" stroke="#aab6c2" stroke-width="2.4" d="M276,-558.05C276,-537.43 276,-505.9 276,-481.87"/>
<polygon fill="#aab6c2" stroke="#aab6c2" stroke-width="2.4" points="279.15,-482.04 276,-473.04 272.85,-482.04 279.15,-482.04"/>
</g>
<!-- P4 -->
<g id="node6" class="node">
<title>P4</title>
<path fill="#4a2d63" stroke="#8957e5" stroke-width="1.4" d="M354,-131.22C354,-131.22 198,-131.22 198,-131.22 192,-131.22 186,-125.22 186,-119.22 186,-119.22 186,-99 186,-99 186,-93 192,-87 198,-87 198,-87 354,-87 354,-87 360,-87 366,-93 366,-99 366,-99 366,-119.22 366,-119.22 366,-125.22 360,-131.22 354,-131.22"/>
<text text-anchor="middle" x="276" y="-110.46" font-family="Helvetica,sans-Serif" font-size="12.00" fill="#eccfff">P4 · Join</text>
<text text-anchor="middle" x="276" y="-97.71" font-family="Helvetica,sans-Serif" font-size="12.00" fill="#eccfff">calibrated answer</text>
</g>
<!-- P0&#45;&gt;P4 -->
<g id="edge24" class="edge">
<title>P0&#45;&gt;P4</title>
<path fill="none" stroke="#b78fd6" stroke-dasharray="5,2" d="M230.73,-557.91C152.43,-520.61 0,-448.01 0,-448.01 0,-448.01 0,-448.01 0,-217.33 0,-217.33 129.69,-166.94 211.27,-135.25"/>
<polygon fill="#b78fd6" stroke="#b78fd6" points="212.22,-138.08 219.07,-132.23 210.07,-132.53 212.22,-138.08"/>
<text text-anchor="middle" x="40.12" y="-333.92" font-family="Helvetica,sans-Serif" font-size="10.00" fill="#d2a8ff">known dep: beat&#45;1</text>
</g>
<!-- CSUBJ -->
<g id="node8" class="node">
<title>CSUBJ</title>
<path fill="#5a3d1a" stroke="#d29922" stroke-width="1.4" d="M685.31,-586.91C685.31,-586.91 648.84,-610.13 648.84,-610.13 643.78,-613.35 632.72,-616.57 626.72,-616.57 626.72,-616.57 537.28,-616.57 537.28,-616.57 531.28,-616.57 520.22,-613.35 515.16,-610.13 515.16,-610.13 478.69,-586.91 478.69,-586.91 473.63,-583.69 473.63,-577.25 478.69,-574.02 478.69,-574.02 515.16,-550.81 515.16,-550.81 520.22,-547.58 531.28,-544.36 537.28,-544.36 537.28,-544.36 626.72,-544.36 626.72,-544.36 632.72,-544.36 643.78,-547.58 648.84,-550.81 648.84,-550.81 685.31,-574.02 685.31,-574.02 690.37,-577.25 690.37,-583.69 685.31,-586.91"/>
<text text-anchor="middle" x="582" y="-581.82" font-family="Helvetica,sans-Serif" font-size="12.00" fill="#ffe9c2">CSUBJ</text>
<text text-anchor="middle" x="582" y="-569.07" font-family="Helvetica,sans-Serif" font-size="12.00" fill="#ffe9c2">which dependency?</text>
</g>
<!-- P0&#45;&gt;CSUBJ -->
<g id="edge11" class="edge">
<title>P0&#45;&gt;CSUBJ</title>
<path fill="none" stroke="#7d8a99" stroke-dasharray="5,2" d="M366.16,-580.47C394.87,-580.47 427.16,-580.47 457.84,-580.47"/>
<polygon fill="#7d8a99" stroke="#7d8a99" points="457.72,-583.44 466.22,-580.47 457.72,-577.49 457.72,-583.44"/>
<text text-anchor="middle" x="417.28" y="-585.22" font-family="Helvetica,sans-Serif" font-size="10.00" fill="#aab6c2">ambiguous</text>
</g>
<!-- P1&#45;&gt;P1 -->
<g id="edge18" class="edge">
<title>P1&#45;&gt;P1</title>
<path fill="none" stroke="#7d8a99" d="M366.33,-458.29C386.91,-457.29 402,-453.53 402,-447.01 402,-441.55 391.46,-438.03 375.97,-436.44"/>
<polygon fill="#7d8a99" stroke="#7d8a99" points="376.53,-433.49 367.84,-435.84 376.09,-439.43 376.53,-433.49"/>
<text text-anchor="middle" x="428.25" y="-443.13" font-family="Helvetica,sans-Serif" font-size="10.00" fill="#aab6c2">404 recalled</text>
</g>
<!-- P2 -->
<g id="node4" class="node">
<title>P2</title>
<path fill="#2d3340" stroke="#3b4654" stroke-width="1.4" d="M354,-359.9C354,-359.9 198,-359.9 198,-359.9 192,-359.9 186,-353.9 186,-347.9 186,-347.9 186,-327.68 186,-327.68 186,-321.68 192,-315.68 198,-315.68 198,-315.68 354,-315.68 354,-315.68 360,-315.68 366,-321.68 366,-327.68 366,-327.68 366,-347.9 366,-347.9 366,-353.9 360,-359.9 354,-359.9"/>
<text text-anchor="middle" x="276" y="-339.14" font-family="Helvetica,sans-Serif" font-size="12.00" fill="#e6edf3">P2 · Reuse</text>
<text text-anchor="middle" x="276" y="-326.39" font-family="Helvetica,sans-Serif" font-size="12.00" fill="#e6edf3">what&#39;s on disk</text>
</g>
<!-- P1&#45;&gt;P2 -->
<g id="edge3" class="edge">
<title>P1&#45;&gt;P2</title>
<path fill="none" stroke="#aab6c2" stroke-width="2.4" d="M276,-424.57C276,-409.74 276,-389.7 276,-372.72"/>
<polygon fill="#aab6c2" stroke="#aab6c2" stroke-width="2.4" points="279.15,-372.83 276,-363.83 272.85,-372.83 279.15,-372.83"/>
</g>
<!-- ASKURL -->
<g id="node9" class="node">
<title>ASKURL</title>
<path fill="#5a3d1a" stroke="#d29922" stroke-width="1.4" d="M647.06,-455.41C647.06,-455.41 627.38,-474.71 627.38,-474.71 623.1,-478.91 612.82,-483.11 606.82,-483.11 606.82,-483.11 557.18,-483.11 557.18,-483.11 551.18,-483.11 540.9,-478.91 536.62,-474.71 536.62,-474.71 516.94,-455.41 516.94,-455.41 512.65,-451.21 512.65,-442.81 516.94,-438.6 516.94,-438.6 536.62,-419.3 536.62,-419.3 540.9,-415.1 551.18,-410.9 557.18,-410.9 557.18,-410.9 606.82,-410.9 606.82,-410.9 612.82,-410.9 623.1,-415.1 627.38,-419.3 627.38,-419.3 647.06,-438.6 647.06,-438.6 651.35,-442.81 651.35,-451.21 647.06,-455.41"/>
<text text-anchor="middle" x="582" y="-448.36" font-family="Helvetica,sans-Serif" font-size="12.00" fill="#ffe9c2">ASKURL</text>
<text text-anchor="middle" x="582" y="-435.61" font-family="Helvetica,sans-Serif" font-size="12.00" fill="#ffe9c2">repo URL?</text>
</g>
<!-- P1&#45;&gt;ASKURL -->
<g id="edge14" class="edge">
<title>P1&#45;&gt;ASKURL</title>
<path fill="none" stroke="#7d8a99" stroke-dasharray="5,2" d="M366.16,-447.01C407.77,-447.01 456.89,-447.01 497.75,-447.01"/>
<polygon fill="#7d8a99" stroke="#7d8a99" points="497.66,-449.98 506.16,-447.01 497.66,-444.03 497.66,-449.98"/>
<text text-anchor="middle" x="437.18" y="-451.76" font-family="Helvetica,sans-Serif" font-size="10.00" fill="#aab6c2">no pick</text>
</g>
<!-- TR -->
<g id="node11" class="node">
<title>TR</title>
<path fill="#9a6700" stroke="#3b4654" stroke-width="1.4" d="M885.2,-465.01C885.2,-465.01 786.8,-465.01 786.8,-465.01 780.8,-465.01 774.8,-459.01 774.8,-453.01 774.8,-453.01 774.8,-441.01 774.8,-441.01 774.8,-435.01 780.8,-429.01 786.8,-429.01 786.8,-429.01 885.2,-429.01 885.2,-429.01 891.2,-429.01 897.2,-435.01 897.2,-441.01 897.2,-441.01 897.2,-453.01 897.2,-453.01 897.2,-459.01 891.2,-465.01 885.2,-465.01"/>
<text text-anchor="middle" x="836" y="-441.98" font-family="Helvetica,sans-Serif" font-size="12.00" fill="#fff7e6">can&#39;t reach</text>
</g>
<!-- P1&#45;&gt;TR -->
<g id="edge17" class="edge">
<title>P1&#45;&gt;TR</title>
<path fill="none" stroke="#7d8a99" d="M346.17,-469.55C400.52,-487.01 466.62,-508.24 466.62,-508.24 466.62,-508.24 527.38,-508.24 527.38,-508.24 527.38,-508.24 674,-483.11 674,-483.11 674,-483.11 721.63,-472.5 765.24,-462.78"/>
<polygon fill="#7d8a99" stroke="#7d8a99" points="765.63,-465.74 773.28,-460.99 764.33,-459.93 765.63,-465.74"/>
<text text-anchor="middle" x="497" y="-509.86" font-family="Helvetica,sans-Serif" font-size="10.00" fill="#aab6c2">404 dev&#45;given</text>
</g>
<!-- P3 -->
<g id="node5" class="node">
<title>P3</title>
<path fill="#1b4d6b" stroke="#1f6feb" stroke-width="1.4" d="M354,-241.56C354,-241.56 198,-241.56 198,-241.56 192,-241.56 186,-235.56 186,-229.56 186,-229.56 186,-207.09 186,-207.09 186,-201.09 192,-195.09 198,-195.09 198,-195.09 354,-195.09 354,-195.09 360,-195.09 366,-201.09 366,-207.09 366,-207.09 366,-229.56 366,-229.56 366,-235.56 360,-241.56 354,-241.56"/>
<text text-anchor="middle" x="276" y="-220.8" font-family="Helvetica,sans-Serif" font-size="12.00" fill="#cfe9ff">P3 · Gather</text>
<text text-anchor="middle" x="276" y="-208.05" font-family="Helvetica,sans-Serif" font-size="12.00" fill="#cfe9ff">docs → inspect → run</text>
</g>
<!-- P2&#45;&gt;P3 -->
<g id="edge4" class="edge">
<title>P2&#45;&gt;P3</title>
<path fill="none" stroke="#aab6c2" stroke-width="2.4" d="M276,-315.25C276,-298.27 276,-274.24 276,-254.49"/>
<polygon fill="#aab6c2" stroke="#aab6c2" stroke-width="2.4" points="279.15,-254.57 276,-245.57 272.85,-254.57 279.15,-254.57"/>
</g>
<!-- P2&#45;&gt;P4 -->
<g id="edge23" class="edge">
<title>P2&#45;&gt;P4</title>
<path fill="none" stroke="#7d8a99" stroke-dasharray="5,2" d="M232.49,-315.37C182.94,-290.96 108.75,-254.43 108.75,-254.43 108.75,-254.43 108.75,-182.22 108.75,-182.22 108.75,-182.22 168.96,-156.26 217.13,-135.49"/>
<polygon fill="#7d8a99" stroke="#7d8a99" points="218.25,-138.25 224.88,-132.15 215.9,-132.78 218.25,-138.25"/>
<text text-anchor="middle" x="138.38" y="-214.45" font-family="Helvetica,sans-Serif" font-size="10.00" fill="#aab6c2">map&#45;hit (skip)</text>
</g>
<!-- P3&#45;&gt;P4 -->
<g id="edge5" class="edge">
<title>P3&#45;&gt;P4</title>
<path fill="none" stroke="#aab6c2" stroke-width="2.4" d="M276,-194.85C276,-180.12 276,-160.59 276,-144"/>
<polygon fill="#aab6c2" stroke="#aab6c2" stroke-width="2.4" points="279.15,-144.09 276,-135.09 272.85,-144.09 279.15,-144.09"/>
</g>
<!-- CMATCH -->
<g id="node10" class="node">
<title>CMATCH</title>
<path fill="#5a3d1a" stroke="#d29922" stroke-width="1.4" d="M645.91,-226.8C645.91,-226.8 626.7,-245.96 626.7,-245.96 622.45,-250.19 612.2,-254.43 606.2,-254.43 606.2,-254.43 557.8,-254.43 557.8,-254.43 551.8,-254.43 541.55,-250.19 537.3,-245.96 537.3,-245.96 518.09,-226.8 518.09,-226.8 513.84,-222.56 513.84,-214.09 518.09,-209.85 518.09,-209.85 537.3,-190.69 537.3,-190.69 541.55,-186.46 551.8,-182.22 557.8,-182.22 557.8,-182.22 606.2,-182.22 606.2,-182.22 612.2,-182.22 622.45,-186.46 626.7,-190.69 626.7,-190.69 645.91,-209.85 645.91,-209.85 650.16,-214.09 650.16,-222.56 645.91,-226.8"/>
<text text-anchor="middle" x="582" y="-219.68" font-family="Helvetica,sans-Serif" font-size="12.00" fill="#ffe9c2">CMATCH</text>
<text text-anchor="middle" x="582" y="-206.93" font-family="Helvetica,sans-Serif" font-size="12.00" fill="#ffe9c2">right repo?</text>
</g>
<!-- P3&#45;&gt;CMATCH -->
<g id="edge19" class="edge">
<title>P3&#45;&gt;CMATCH</title>
<path fill="none" stroke="#7d8a99" stroke-dasharray="5,2" d="M366.16,-218.33C408.17,-218.33 457.85,-218.33 498.94,-218.33"/>
<polygon fill="#7d8a99" stroke="#7d8a99" points="498.91,-221.3 507.41,-218.33 498.91,-215.35 498.91,-221.3"/>
<text text-anchor="middle" x="437.8" y="-223.08" font-family="Helvetica,sans-Serif" font-size="10.00" fill="#aab6c2">mismatch</text>
</g>
<!-- TCU -->
<g id="node12" class="node">
<title>TCU</title>
<path fill="#9a6700" stroke="#3b4654" stroke-width="1.4" d="M895.72,-236.33C895.72,-236.33 776.28,-236.33 776.28,-236.33 770.28,-236.33 764.28,-230.33 764.28,-224.33 764.28,-224.33 764.28,-212.33 764.28,-212.33 764.28,-206.33 770.28,-200.33 776.28,-200.33 776.28,-200.33 895.72,-200.33 895.72,-200.33 901.72,-200.33 907.72,-206.33 907.72,-212.33 907.72,-212.33 907.72,-224.33 907.72,-224.33 907.72,-230.33 901.72,-236.33 895.72,-236.33"/>
<text text-anchor="middle" x="836" y="-213.3" font-family="Helvetica,sans-Serif" font-size="12.00" fill="#fff7e6">completed&#45;unverified</text>
</g>
<!-- P3&#45;&gt;TCU -->
<g id="edge21" class="edge">
<title>P3&#45;&gt;TCU</title>
<path fill="none" stroke="#7d8a99" d="M363.14,-242C426.56,-259.23 501.38,-279.56 501.38,-279.56 501.38,-279.56 542.62,-279.56 542.62,-279.56 542.62,-279.56 737,-254.43 737,-254.43 737,-254.43 755.2,-247.79 775.99,-240.21"/>
<polygon fill="#7d8a99" stroke="#7d8a99" points="776.95,-243.03 783.92,-237.32 774.91,-237.44 776.95,-243.03"/>
<text text-anchor="middle" x="522" y="-281.18" font-family="Helvetica,sans-Serif" font-size="10.00" fill="#aab6c2">build fails</text>
</g>
<!-- P4&#45;&gt;P4 -->
<g id="edge25" class="edge">
<title>P4&#45;&gt;P4</title>
<path fill="none" stroke="#b78fd6" d="M366.33,-117.83C386.91,-117.06 402,-114.15 402,-109.11 402,-104.89 391.46,-102.17 375.97,-100.94"/>
<polygon fill="#b78fd6" stroke="#b78fd6" points="376.49,-97.99 367.84,-100.48 376.15,-103.93 376.49,-97.99"/>
<text text-anchor="middle" x="415.5" y="-105.23" font-family="Helvetica,sans-Serif" font-size="10.00" fill="#d2a8ff">beat&#45;2</text>
</g>
<!-- TA -->
<g id="node7" class="node">
<title>TA</title>
<path fill="#1a7f4b" stroke="#3b4654" stroke-width="1.4" d="M354,-36C354,-36 198,-36 198,-36 192,-36 186,-30 186,-24 186,-24 186,-12 186,-12 186,-6 192,0 198,0 198,0 354,0 354,0 360,0 366,-6 366,-12 366,-12 366,-24 366,-24 366,-30 360,-36 354,-36"/>
<text text-anchor="middle" x="276" y="-12.97" font-family="Helvetica,sans-Serif" font-size="12.00" fill="#eafff3">answered</text>
</g>
<!-- P4&#45;&gt;TA -->
<g id="edge6" class="edge">
<title>P4&#45;&gt;TA</title>
<path fill="none" stroke="#aab6c2" stroke-width="2.4" d="M276,-86.54C276,-75.27 276,-61.29 276,-48.98"/>
<polygon fill="#aab6c2" stroke="#aab6c2" stroke-width="2.4" points="279.15,-49.12 276,-40.12 272.85,-49.12 279.15,-49.12"/>
</g>
<!-- CSUBJ&#45;&gt;P1 -->
<g id="edge12" class="edge">
<title>CSUBJ&#45;&gt;P1</title>
<path fill="none" stroke="#7d8a99" d="M511.89,-552.75C469.76,-536.7 424.25,-519.36 424.25,-519.36 424.25,-519.36 372.19,-494.3 329.77,-473.88"/>
<polygon fill="#7d8a99" stroke="#7d8a99" points="331.2,-471.27 322.25,-470.27 328.61,-476.63 331.2,-471.27"/>
<text text-anchor="middle" x="441.12" y="-509.86" font-family="Helvetica,sans-Serif" font-size="10.00" fill="#aab6c2">clarified</text>
</g>
<!-- CSUBJ&#45;&gt;ASKURL -->
<!-- TU -->
<g id="node13" class="node">
<title>TU</title>
<path fill="#8b2c2c" stroke="#3b4654" stroke-width="1.4" d="M885.2,-127.11C885.2,-127.11 786.8,-127.11 786.8,-127.11 780.8,-127.11 774.8,-121.11 774.8,-115.11 774.8,-115.11 774.8,-103.11 774.8,-103.11 774.8,-97.11 780.8,-91.11 786.8,-91.11 786.8,-91.11 885.2,-91.11 885.2,-91.11 891.2,-91.11 897.2,-97.11 897.2,-103.11 897.2,-103.11 897.2,-115.11 897.2,-115.11 897.2,-121.11 891.2,-127.11 885.2,-127.11"/>
<text text-anchor="middle" x="836" y="-104.08" font-family="Helvetica,sans-Serif" font-size="12.00" fill="#ffecec">unresolvable</text>
</g>
<!-- CSUBJ&#45;&gt;TU -->
<g id="edge13" class="edge">
<title>CSUBJ&#45;&gt;TU</title>
<path fill="none" stroke="#7d8a99" d="M659.23,-557.12C757.61,-528.65 915,-483.11 915,-483.11 915,-483.11 963,-448.01 963,-448.01 963,-448.01 963,-448.01 963,-217.33 963,-217.33 926,-182.22 926,-182.22 926,-182.22 891.56,-154.62 865.29,-133.57"/>
<polygon fill="#7d8a99" stroke="#7d8a99" points="867.46,-131.51 858.97,-128.51 863.74,-136.15 867.46,-131.51"/>
<text text-anchor="middle" x="982.88" y="-333.92" font-family="Helvetica,sans-Serif" font-size="10.00" fill="#aab6c2">can&#39;t say</text>
</g>
<!-- ASKURL&#45;&gt;P1 -->
<g id="edge15" class="edge">
<title>ASKURL&#45;&gt;P1</title>
<path fill="none" stroke="#7d8a99" d="M515.05,-439.92C481.25,-436.35 447.31,-432.76 447.31,-432.76 447.31,-432.76 427.06,-432.76 427.06,-432.76 427.06,-432.76 404.14,-434.92 376.15,-437.56"/>
<polygon fill="#7d8a99" stroke="#7d8a99" points="376.18,-434.57 367.99,-438.33 376.74,-440.49 376.18,-434.57"/>
<text text-anchor="middle" x="437.18" y="-434.51" font-family="Helvetica,sans-Serif" font-size="10.00" fill="#aab6c2">URL</text>
</g>
<!-- ASKURL&#45;&gt;CMATCH -->
<!-- ASKURL&#45;&gt;TU -->
<g id="edge16" class="edge">
<title>ASKURL&#45;&gt;TU</title>
<path fill="none" stroke="#7d8a99" d="M604.12,-410.43C648.88,-338.43 746,-182.22 746,-182.22 746,-182.22 780.44,-154.62 806.71,-133.57"/>
<polygon fill="#7d8a99" stroke="#7d8a99" points="808.26,-136.15 813.03,-128.51 804.54,-131.51 808.26,-136.15"/>
<text text-anchor="middle" x="701.28" y="-281.18" font-family="Helvetica,sans-Serif" font-size="10.00" fill="#aab6c2">no idea</text>
</g>
<!-- CMATCH&#45;&gt;P1 -->
<g id="edge22" class="edge">
<title>CMATCH&#45;&gt;P1</title>
<path fill="none" stroke="#c97a7a" d="M538.85,-248.15C515.75,-263.57 492,-279.43 492,-279.43 492,-279.43 373.05,-371.16 311.7,-418.48"/>
<polygon fill="#c97a7a" stroke="#c97a7a" points="309.91,-416.1 304.99,-423.65 313.54,-420.81 309.91,-416.1"/>
<text text-anchor="middle" x="464.46" y="-333.92" font-family="Helvetica,sans-Serif" font-size="10.00" fill="#e6a6a6">no / URL</text>
</g>
<!-- CMATCH&#45;&gt;P3 -->
<g id="edge20" class="edge">
<title>CMATCH&#45;&gt;P3</title>
<path fill="none" stroke="#7d8a99" d="M515.83,-211.41C481.1,-207.78 445.67,-204.08 445.67,-204.08 445.67,-204.08 429.92,-204.08 429.92,-204.08 429.92,-204.08 405.5,-206.34 376.12,-209.06"/>
<polygon fill="#7d8a99" stroke="#7d8a99" points="376.12,-206.07 367.93,-209.81 376.67,-211.99 376.12,-206.07"/>
<text text-anchor="middle" x="437.8" y="-205.83" font-family="Helvetica,sans-Serif" font-size="10.00" fill="#aab6c2">yes</text>
</g>
<!-- TR&#45;&gt;TCU -->
<!-- TCU&#45;&gt;TU -->
</g>
</svg>
