<?xml version="1.0" encoding="UTF-8" standalone="no"?>
<!DOCTYPE svg PUBLIC "-//W3C//DTD SVG 1.1//EN"
 "http://www.w3.org/Graphics/SVG/1.1/DTD/svg11.dtd">
<!-- Generated by graphviz version 12.2.1 (20241206.2353)
 -->
<!-- Title: grounding Pages: 1 -->
<svg width="1171pt" height="786pt"
 viewBox="0.00 0.00 1171.00 785.60" xmlns="http://www.w3.org/2000/svg" xmlns:xlink="http://www.w3.org/1999/xlink">
<g id="graph0" class="graph" transform="scale(1 1) rotate(0) translate(4 781.6)">
<title>grounding</title>
<polygon fill="#0f1419" stroke="none" points="-4,4 -4,-781.6 1167,-781.6 1167,4 -4,4"/>
<!-- Q -->
<g id="node1" class="node">
<title>Q</title>
<path fill="#21262d" stroke="#3b4654" stroke-width="1.4" d="M814.3,-777.6C814.3,-777.6 711.25,-777.6 711.25,-777.6 705.25,-777.6 699.25,-771.6 699.25,-765.6 699.25,-765.6 699.25,-753.6 699.25,-753.6 699.25,-747.6 705.25,-741.6 711.25,-741.6 711.25,-741.6 814.3,-741.6 814.3,-741.6 820.3,-741.6 826.3,-747.6 826.3,-753.6 826.3,-753.6 826.3,-765.6 826.3,-765.6 826.3,-771.6 820.3,-777.6 814.3,-777.6"/>
<text text-anchor="middle" x="762.77" y="-755.15" font-family="Helvetica,sans-Serif" font-size="11.00" fill="#e6edf3">developer&#39;s question</text>
</g>
<!-- P0 -->
<g id="node2" class="node">
<title>P0</title>
<path fill="#1b4d6b" stroke="#1f6feb" stroke-width="1.4" d="M879.17,-696.6C879.17,-696.6 646.38,-696.6 646.38,-696.6 640.38,-696.6 634.38,-690.6 634.38,-684.6 634.38,-684.6 634.38,-665.07 634.38,-665.07 634.38,-659.07 640.38,-653.07 646.38,-653.07 646.38,-653.07 879.17,-653.07 879.17,-653.07 885.17,-653.07 891.17,-659.07 891.17,-665.07 891.17,-665.07 891.17,-684.6 891.17,-684.6 891.17,-690.6 885.17,-696.6 879.17,-696.6"/>
<text text-anchor="middle" x="762.77" y="-677.51" font-family="Helvetica,sans-Serif" font-size="11.00" fill="#cfe9ff">P0 · Interpret &#160;(recall gatherer)</text>
<text text-anchor="middle" x="762.77" y="-665.51" font-family="Helvetica,sans-Serif" font-size="11.00" fill="#cfe9ff">→ reference · altitude · cardinality · recall claims</text>
</g>
<!-- Q&#45;&gt;P0 -->
<g id="edge1" class="edge">
<title>Q&#45;&gt;P0</title>
<path fill="none" stroke="#7d8a99" stroke-width="1.1" d="M762.77,-741.45C762.77,-731.99 762.77,-719.93 762.77,-708.73"/>
<polygon fill="#7d8a99" stroke="#7d8a99" stroke-width="1.1" points="766.28,-708.75 762.78,-698.75 759.28,-708.75 766.28,-708.75"/>
</g>
<!-- P1 -->
<g id="node3" class="node">
<title>P1</title>
<path fill="#2d3340" stroke="#3b4654" stroke-width="1.4" d="M808.05,-478.16C808.05,-478.16 679.5,-478.16 679.5,-478.16 673.5,-478.16 667.5,-472.16 667.5,-466.16 667.5,-466.16 667.5,-446.63 667.5,-446.63 667.5,-440.63 673.5,-434.63 679.5,-434.63 679.5,-434.63 808.05,-434.63 808.05,-434.63 814.05,-434.63 820.05,-440.63 820.05,-446.63 820.05,-446.63 820.05,-466.16 820.05,-466.16 820.05,-472.16 814.05,-478.16 808.05,-478.16"/>
<text text-anchor="middle" x="743.77" y="-459.07" font-family="Helvetica,sans-Serif" font-size="11.00" fill="#e6edf3">P1 · Resolve</text>
<text text-anchor="middle" x="743.77" y="-447.07" font-family="Helvetica,sans-Serif" font-size="11.00" fill="#e6edf3">reference → identity + pin</text>
</g>
<!-- P0&#45;&gt;P1 -->
<g id="edge2" class="edge">
<title>P0&#45;&gt;P1</title>
<path fill="none" stroke="#7d8a99" stroke-width="1.1" d="M760.92,-652.69C757.59,-614.78 750.59,-535.05 746.64,-490.07"/>
<polygon fill="#7d8a99" stroke="#7d8a99" stroke-width="1.1" points="750.15,-489.94 745.78,-480.29 743.17,-490.55 750.15,-489.94"/>
<text text-anchor="middle" x="800.34" y="-561.94" font-family="Helvetica,sans-Serif" font-size="9.00" fill="#aab6c2">per ref &#160;(N&gt;1 fans out)</text>
</g>
<!-- P4 -->
<g id="node6" class="node">
<title>P4</title>
<path fill="#4a2d63" stroke="#8957e5" stroke-width="1.4" d="M197.55,-150.5C197.55,-150.5 12,-150.5 12,-150.5 6,-150.5 0,-144.5 0,-138.5 0,-138.5 0,-118.97 0,-118.97 0,-112.97 6,-106.97 12,-106.97 12,-106.97 197.55,-106.97 197.55,-106.97 203.55,-106.97 209.55,-112.97 209.55,-118.97 209.55,-118.97 209.55,-138.5 209.55,-138.5 209.55,-144.5 203.55,-150.5 197.55,-150.5"/>
<text text-anchor="middle" x="104.77" y="-131.41" font-family="Helvetica,sans-Serif" font-size="11.00" fill="#eccfff">P4 · Join &#160;(the synthesizer)</text>
<text text-anchor="middle" x="104.77" y="-119.41" font-family="Helvetica,sans-Serif" font-size="11.00" fill="#eccfff">assemble claims → calibrated answer</text>
</g>
<!-- P0&#45;&gt;P4 -->
<g id="edge10" class="edge">
<title>P0&#45;&gt;P4</title>
<path fill="none" stroke="#7d8a99" stroke-width="1.1" stroke-dasharray="5,2" d="M796.05,-652.76C814.87,-639.4 837.61,-620.65 852.77,-599.32 880.04,-560.99 855.79,-532.68 889.77,-500.16 912.73,-478.2 932.67,-497.62 957.77,-478.16 989.09,-453.89 984.03,-436.16 1005.52,-402.88 1039.66,-350.02 1108.03,-337.43 1078.78,-281.72 1007.56,-146.08 552.25,-177.34 399.77,-162.44 340.88,-156.68 275.47,-149.51 221.23,-143.35"/>
<polygon fill="#7d8a99" stroke="#7d8a99" stroke-width="1.1" points="221.82,-139.9 211.49,-142.24 221.03,-146.85 221.82,-139.9"/>
<text text-anchor="middle" x="1060.65" y="-404.08" font-family="Helvetica,sans-Serif" font-size="9.00" fill="#aab6c2">known dep · recall = beat&#45;1</text>
</g>
<!-- CSUBJ -->
<g id="node7" class="node">
<title>CSUBJ</title>
<path fill="#5a3d1a" stroke="#d29922" stroke-width="1.4" d="M1123.07,-572.26C1123.07,-572.26 1092.41,-592.67 1092.41,-592.67 1087.41,-596 1076.42,-599.32 1070.42,-599.32 1070.42,-599.32 993.13,-599.32 993.13,-599.32 987.13,-599.32 976.14,-596 971.14,-592.67 971.14,-592.67 940.48,-572.26 940.48,-572.26 935.48,-568.94 935.48,-562.29 940.48,-558.97 940.48,-558.97 971.14,-538.56 971.14,-538.56 976.14,-535.23 987.13,-531.91 993.13,-531.91 993.13,-531.91 1070.42,-531.91 1070.42,-531.91 1076.42,-531.91 1087.41,-535.23 1092.41,-538.56 1092.41,-538.56 1123.07,-558.97 1123.07,-558.97 1128.07,-562.29 1128.07,-568.94 1123.07,-572.26"/>
<text text-anchor="middle" x="1031.78" y="-567.16" font-family="Helvetica,sans-Serif" font-size="11.00" fill="#ffe9c2">CSUBJ</text>
<text text-anchor="middle" x="1031.78" y="-555.16" font-family="Helvetica,sans-Serif" font-size="11.00" fill="#ffe9c2">which dependency?</text>
</g>
<!-- P0&#45;&gt;CSUBJ -->
<g id="edge7" class="edge">
<title>P0&#45;&gt;CSUBJ</title>
<path fill="none" stroke="#7d8a99" stroke-width="1.1" stroke-dasharray="5,2" d="M815.92,-652.65C856.6,-636.44 913.19,-613.88 958.22,-595.93"/>
<polygon fill="#7d8a99" stroke="#7d8a99" stroke-width="1.1" points="959.28,-599.28 967.27,-592.33 956.68,-592.78 959.28,-599.28"/>
<text text-anchor="middle" x="927.83" y="-622.52" font-family="Helvetica,sans-Serif" font-size="9.00" fill="#aab6c2">subject ambiguous</text>
</g>
<!-- P1&#45;&gt;P1 -->
<g id="edge11" class="edge">
<title>P1&#45;&gt;P1</title>
<path fill="none" stroke="#7d8a99" stroke-width="1.1" d="M820.16,-465.35C838.48,-464.65 852.05,-461.67 852.05,-456.39 852.05,-452.32 843.93,-449.61 831.78,-448.26"/>
<polygon fill="#7d8a99" stroke="#7d8a99" stroke-width="1.1" points="832.05,-444.77 821.82,-447.55 831.55,-451.76 832.05,-444.77"/>
<text text-anchor="middle" x="903.8" y="-453.47" font-family="Helvetica,sans-Serif" font-size="9.00" fill="#aab6c2">404 recalled → re&#45;search</text>
</g>
<!-- P2 -->
<g id="node4" class="node">
<title>P2</title>
<path fill="#2d3340" stroke="#3b4654" stroke-width="1.4" d="M560.67,-368.94C560.67,-368.94 378.88,-368.94 378.88,-368.94 372.88,-368.94 366.88,-362.94 366.88,-356.94 366.88,-356.94 366.88,-337.41 366.88,-337.41 366.88,-331.41 372.88,-325.41 378.88,-325.41 378.88,-325.41 560.67,-325.41 560.67,-325.41 566.67,-325.41 572.67,-331.41 572.67,-337.41 572.67,-337.41 572.67,-356.94 572.67,-356.94 572.67,-362.94 566.67,-368.94 560.67,-368.94"/>
<text text-anchor="middle" x="469.77" y="-349.85" font-family="Helvetica,sans-Serif" font-size="11.00" fill="#e6edf3">P2 · Reuse &#160;(reuse&#45;first, offline)</text>
<text text-anchor="middle" x="469.77" y="-337.85" font-family="Helvetica,sans-Serif" font-size="11.00" fill="#e6edf3">identity → what prior runs left on disk</text>
</g>
<!-- P1&#45;&gt;P2 -->
<g id="edge3" class="edge">
<title>P1&#45;&gt;P2</title>
<path fill="none" stroke="#7d8a99" stroke-width="1.1" d="M667.21,-452.22C623.78,-447.59 569.78,-436.89 527.27,-412.63 512.64,-404.28 499.78,-390.84 489.95,-378.39"/>
<polygon fill="#7d8a99" stroke="#7d8a99" stroke-width="1.1" points="492.83,-376.41 484.04,-370.5 487.23,-380.6 492.83,-376.41"/>
<text text-anchor="middle" x="564.02" y="-404.08" font-family="Helvetica,sans-Serif" font-size="9.00" fill="#aab6c2">resolved + pinned</text>
</g>
<!-- ASKURL -->
<g id="node8" class="node">
<title>ASKURL</title>
<path fill="#5a3d1a" stroke="#d29922" stroke-width="1.4" d="M730.31,-355.69C730.31,-355.69 713.73,-372.37 713.73,-372.37 709.5,-376.62 699.27,-380.88 693.27,-380.88 693.27,-380.88 650.28,-380.88 650.28,-380.88 644.28,-380.88 634.05,-376.62 629.82,-372.37 629.82,-372.37 613.24,-355.69 613.24,-355.69 609.01,-351.43 609.01,-342.92 613.24,-338.66 613.24,-338.66 629.82,-321.98 629.82,-321.98 634.05,-317.73 644.28,-313.47 650.28,-313.47 650.28,-313.47 693.27,-313.47 693.27,-313.47 699.27,-313.47 709.5,-317.73 713.73,-321.98 713.73,-321.98 730.31,-338.66 730.31,-338.66 734.54,-342.92 734.54,-351.43 730.31,-355.69"/>
<text text-anchor="middle" x="671.77" y="-348.72" font-family="Helvetica,sans-Serif" font-size="11.00" fill="#ffe9c2">ASKURL</text>
<text text-anchor="middle" x="671.77" y="-336.72" font-family="Helvetica,sans-Serif" font-size="11.00" fill="#ffe9c2">repo URL?</text>
</g>
<!-- P1&#45;&gt;ASKURL -->
<g id="edge13" class="edge">
<title>P1&#45;&gt;ASKURL</title>
<path fill="none" stroke="#7d8a99" stroke-width="1.1" stroke-dasharray="5,2" d="M667.08,-447.03C646.21,-440.83 625.85,-430.32 613.02,-412.63 604.81,-401.3 610.19,-389.75 620.41,-379.61"/>
<polygon fill="#7d8a99" stroke="#7d8a99" stroke-width="1.1" points="622.49,-382.44 627.77,-373.25 617.92,-377.14 622.49,-382.44"/>
<text text-anchor="middle" x="658.4" y="-404.08" font-family="Helvetica,sans-Serif" font-size="9.00" fill="#aab6c2">search empty / no pick</text>
</g>
<!-- TR -->
<g id="node11" class="node">
<title>TR</title>
<path fill="#9a6700" stroke="#3b4654" stroke-width="1.4" d="M840.42,-365.17C840.42,-365.17 783.12,-365.17 783.12,-365.17 777.12,-365.17 771.12,-359.17 771.12,-353.17 771.12,-353.17 771.12,-341.17 771.12,-341.17 771.12,-335.17 777.12,-329.17 783.12,-329.17 783.12,-329.17 840.42,-329.17 840.42,-329.17 846.42,-329.17 852.42,-335.17 852.42,-341.17 852.42,-341.17 852.42,-353.17 852.42,-353.17 852.42,-359.17 846.42,-365.17 840.42,-365.17"/>
<text text-anchor="middle" x="811.77" y="-342.72" font-family="Helvetica,sans-Serif" font-size="11.00" fill="#fff7e6">can&#39;t reach</text>
</g>
<!-- P1&#45;&gt;TR -->
<g id="edge12" class="edge">
<title>P1&#45;&gt;TR</title>
<path fill="none" stroke="#7d8a99" stroke-width="1.1" d="M757.21,-434.21C767.94,-417.3 783.04,-393.48 794.64,-375.2"/>
<polygon fill="#7d8a99" stroke="#7d8a99" stroke-width="1.1" points="797.54,-377.15 799.94,-366.83 791.63,-373.4 797.54,-377.15"/>
<text text-anchor="middle" x="824.86" y="-404.08" font-family="Helvetica,sans-Serif" font-size="9.00" fill="#aab6c2">404 dev&#45;given (after S8)</text>
</g>
<!-- P3 -->
<g id="node5" class="node">
<title>P3</title>
<path fill="#1b4d6b" stroke="#1f6feb" stroke-width="1.4" d="M567.8,-259.72C567.8,-259.72 371.75,-259.72 371.75,-259.72 365.75,-259.72 359.75,-253.72 359.75,-247.72 359.75,-247.72 359.75,-228.19 359.75,-228.19 359.75,-222.19 365.75,-216.19 371.75,-216.19 371.75,-216.19 567.8,-216.19 567.8,-216.19 573.8,-216.19 579.8,-222.19 579.8,-228.19 579.8,-228.19 579.8,-247.72 579.8,-247.72 579.8,-253.72 573.8,-259.72 567.8,-259.72"/>
<text text-anchor="middle" x="469.77" y="-240.63" font-family="Helvetica,sans-Serif" font-size="11.00" fill="#cfe9ff">P3 · Gather &#160;(climb docs→inspect→run)</text>
<text text-anchor="middle" x="469.77" y="-226.38" font-family="Helvetica,sans-Serif" font-size="11.00" fill="#cfe9ff">foreground to beat&#45;1, then background</text>
</g>
<!-- P2&#45;&gt;P3 -->
<g id="edge4" class="edge">
<title>P2&#45;&gt;P3</title>
<path fill="none" stroke="#7d8a99" stroke-width="1.1" d="M469.77,-324.99C469.77,-309.79 469.77,-289.02 469.77,-271.7"/>
<polygon fill="#7d8a99" stroke="#7d8a99" stroke-width="1.1" points="473.28,-271.76 469.78,-261.76 466.28,-271.76 473.28,-271.76"/>
<text text-anchor="middle" x="500.15" y="-282.92" font-family="Helvetica,sans-Serif" font-size="9.00" fill="#aab6c2">clone&#45;hit / miss</text>
</g>
<!-- P2&#45;&gt;P4 -->
<g id="edge16" class="edge">
<title>P2&#45;&gt;P4</title>
<path fill="none" stroke="#7d8a99" stroke-width="1.1" d="M518.72,-324.98C582.19,-294.68 679.44,-236.84 631.77,-184.44 614.35,-165.29 425.53,-165.09 399.77,-162.44 340.91,-156.39 275.5,-149.18 221.26,-143.08"/>
<polygon fill="#7d8a99" stroke="#7d8a99" stroke-width="1.1" points="221.84,-139.62 211.52,-141.98 221.06,-146.58 221.84,-139.62"/>
<text text-anchor="middle" x="681.83" y="-234.28" font-family="Helvetica,sans-Serif" font-size="9.00" fill="#aab6c2">map&#45;hit &#160;(SKIP P3)</text>
</g>
<!-- P3&#45;&gt;P4 -->
<g id="edge5" class="edge">
<title>P3&#45;&gt;P4</title>
<path fill="none" stroke="#7d8a99" stroke-width="1.1" d="M374.59,-215.73C347.9,-209.31 318.96,-201.9 292.52,-194.19 252.35,-182.47 208.04,-167.37 172.56,-154.73"/>
<polygon fill="#7d8a99" stroke="#7d8a99" stroke-width="1.1" points="174.01,-151.53 163.42,-151.45 171.65,-158.12 174.01,-151.53"/>
<text text-anchor="middle" x="341.65" y="-185.64" font-family="Helvetica,sans-Serif" font-size="9.00" fill="#aab6c2">each rung feeds the join</text>
</g>
<!-- CMATCH -->
<g id="node9" class="node">
<title>CMATCH</title>
<path fill="#5a3d1a" stroke="#d29922" stroke-width="1.4" d="M539.16,-137.32C539.16,-137.32 523.04,-153.85 523.04,-153.85 518.85,-158.15 508.66,-162.44 502.66,-162.44 502.66,-162.44 460.89,-162.44 460.89,-162.44 454.89,-162.44 444.7,-158.15 440.51,-153.85 440.51,-153.85 424.39,-137.32 424.39,-137.32 420.2,-133.03 420.2,-124.44 424.39,-120.15 424.39,-120.15 440.51,-103.62 440.51,-103.62 444.7,-99.32 454.89,-95.03 460.89,-95.03 460.89,-95.03 502.66,-95.03 502.66,-95.03 508.66,-95.03 518.85,-99.32 523.04,-103.62 523.04,-103.62 539.16,-120.15 539.16,-120.15 543.35,-124.44 543.35,-133.03 539.16,-137.32"/>
<text text-anchor="middle" x="481.77" y="-130.28" font-family="Helvetica,sans-Serif" font-size="11.00" fill="#ffe9c2">CMATCH</text>
<text text-anchor="middle" x="481.77" y="-118.28" font-family="Helvetica,sans-Serif" font-size="11.00" fill="#ffe9c2">right repo?</text>
</g>
<!-- P3&#45;&gt;CMATCH -->
<g id="edge17" class="edge">
<title>P3&#45;&gt;CMATCH</title>
<path fill="none" stroke="#7d8a99" stroke-width="1.1" stroke-dasharray="5,2" d="M414.27,-215.75C401.84,-207.56 394.06,-197.07 400.77,-184.44 406.75,-173.2 416.18,-163.84 426.53,-156.24"/>
<polygon fill="#7d8a99" stroke="#7d8a99" stroke-width="1.1" points="428.47,-159.15 434.83,-150.67 424.58,-153.33 428.47,-159.15"/>
<text text-anchor="middle" x="448.77" y="-185.64" font-family="Helvetica,sans-Serif" font-size="9.00" fill="#aab6c2">corroboration mismatch</text>
</g>
<!-- TCU -->
<g id="node12" class="node">
<title>TCU</title>
<path fill="#9a6700" stroke="#3b4654" stroke-width="1.4" d="M696.05,-146.73C696.05,-146.73 591.5,-146.73 591.5,-146.73 585.5,-146.73 579.5,-140.73 579.5,-134.73 579.5,-134.73 579.5,-122.73 579.5,-122.73 579.5,-116.73 585.5,-110.73 591.5,-110.73 591.5,-110.73 696.05,-110.73 696.05,-110.73 702.05,-110.73 708.05,-116.73 708.05,-122.73 708.05,-122.73 708.05,-134.73 708.05,-134.73 708.05,-140.73 702.05,-146.73 696.05,-146.73"/>
<text text-anchor="middle" x="643.77" y="-124.28" font-family="Helvetica,sans-Serif" font-size="11.00" fill="#fff7e6">completed&#45;unverified</text>
</g>
<!-- P3&#45;&gt;TCU -->
<g id="edge21" class="edge">
<title>P3&#45;&gt;TCU</title>
<path fill="none" stroke="#7d8a99" stroke-width="1.1" d="M504.15,-215.77C533.43,-197.73 575.44,-171.85 605.72,-153.19"/>
<polygon fill="#7d8a99" stroke="#7d8a99" stroke-width="1.1" points="607.41,-156.26 614.09,-148.03 603.74,-150.3 607.41,-156.26"/>
<text text-anchor="middle" x="587.56" y="-185.64" font-family="Helvetica,sans-Serif" font-size="9.00" fill="#aab6c2">build/run nonzero</text>
</g>
<!-- P4&#45;&gt;P4 -->
<g id="edge22" class="edge">
<title>P4&#45;&gt;P4</title>
<path fill="none" stroke="#b78fd6" stroke-width="1.1" d="M210.01,-139.41C228.59,-138 241.55,-134.44 241.55,-128.73 241.55,-124.27 233.64,-121.13 221.32,-119.3"/>
<polygon fill="#b78fd6" stroke="#b78fd6" stroke-width="1.1" points="221.98,-115.85 211.66,-118.24 221.22,-122.81 221.98,-115.85"/>
<text text-anchor="middle" x="319.92" y="-125.06" font-family="Helvetica,sans-Serif" font-size="9.00" fill="#d2a8ff">higher grade changes answer (beat&#45;2)</text>
</g>
<!-- TA -->
<g id="node10" class="node">
<title>TA</title>
<path fill="#1a7f4b" stroke="#3b4654" stroke-width="1.4" d="M152.17,-41.28C152.17,-41.28 57.37,-41.28 57.37,-41.28 51.37,-41.28 45.37,-35.28 45.37,-29.28 45.37,-29.28 45.37,-12 45.37,-12 45.37,-6 51.37,0 57.37,0 57.37,0 152.17,0 152.17,0 158.17,0 164.17,-6 164.17,-12 164.17,-12 164.17,-29.28 164.17,-29.28 164.17,-35.28 158.17,-41.28 152.17,-41.28"/>
<text text-anchor="middle" x="104.77" y="-22.19" font-family="Helvetica,sans-Serif" font-size="11.00" fill="#eafff3">answered</text>
<text text-anchor="middle" x="104.77" y="-10.19" font-family="Helvetica,sans-Serif" font-size="11.00" fill="#eafff3">docs / inspect / run</text>
</g>
<!-- P4&#45;&gt;TA -->
<g id="edge6" class="edge">
<title>P4&#45;&gt;TA</title>
<path fill="none" stroke="#7d8a99" stroke-width="1.1" d="M104.77,-106.52C104.77,-91.26 104.77,-70.43 104.77,-53.23"/>
<polygon fill="#7d8a99" stroke="#7d8a99" stroke-width="1.1" points="108.28,-53.4 104.78,-43.4 101.28,-53.4 108.28,-53.4"/>
<text text-anchor="middle" x="132.9" y="-64.48" font-family="Helvetica,sans-Serif" font-size="9.00" fill="#aab6c2">joined + done</text>
</g>
<!-- CSUBJ&#45;&gt;P1 -->
<g id="edge8" class="edge">
<title>CSUBJ&#45;&gt;P1</title>
<path fill="none" stroke="#7d8a99" stroke-width="1.1" d="M967.5,-540.69C921.05,-523.39 858.44,-500.09 811.27,-482.52"/>
<polygon fill="#7d8a99" stroke="#7d8a99" stroke-width="1.1" points="812.7,-479.32 802.1,-479.11 810.25,-485.88 812.7,-479.32"/>
<text text-anchor="middle" x="895.26" y="-501.36" font-family="Helvetica,sans-Serif" font-size="9.00" fill="#aab6c2">clarified</text>
</g>
<!-- TU -->
<g id="node13" class="node">
<title>TU</title>
<path fill="#8b2c2c" stroke="#3b4654" stroke-width="1.4" d="M955.55,-255.95C955.55,-255.95 890,-255.95 890,-255.95 884,-255.95 878,-249.95 878,-243.95 878,-243.95 878,-231.95 878,-231.95 878,-225.95 884,-219.95 890,-219.95 890,-219.95 955.55,-219.95 955.55,-219.95 961.55,-219.95 967.55,-225.95 967.55,-231.95 967.55,-231.95 967.55,-243.95 967.55,-243.95 967.55,-249.95 961.55,-255.95 955.55,-255.95"/>
<text text-anchor="middle" x="922.77" y="-233.5" font-family="Helvetica,sans-Serif" font-size="11.00" fill="#ffecec">unresolvable</text>
</g>
<!-- CSUBJ&#45;&gt;TU -->
<g id="edge9" class="edge">
<title>CSUBJ&#45;&gt;TU</title>
<path fill="none" stroke="#7d8a99" stroke-width="1.1" d="M1059.19,-531.52C1081.5,-502.31 1111.26,-457.49 1123.78,-412.63 1137.11,-364.83 1207.54,-397.85 1085.78,-281.72 1057.43,-254.69 1014.16,-244.23 979.32,-240.41"/>
<polygon fill="#7d8a99" stroke="#7d8a99" stroke-width="1.1" points="979.8,-236.94 969.52,-239.51 979.16,-243.91 979.8,-236.94"/>
<text text-anchor="middle" x="1145.38" y="-404.08" font-family="Helvetica,sans-Serif" font-size="9.00" fill="#aab6c2">can&#39;t say</text>
</g>
<!-- ASKURL&#45;&gt;P1 -->
<g id="edge14" class="edge">
<title>ASKURL&#45;&gt;P1</title>
<path fill="none" stroke="#7d8a99" stroke-width="1.1" d="M693.91,-381.14C703.25,-395.04 714.05,-411.14 723.21,-424.78"/>
<polygon fill="#7d8a99" stroke="#7d8a99" stroke-width="1.1" points="720.14,-426.48 728.62,-432.83 725.95,-422.58 720.14,-426.48"/>
<text text-anchor="middle" x="723.6" y="-404.08" font-family="Helvetica,sans-Serif" font-size="9.00" fill="#aab6c2">URL</text>
</g>
<!-- ASKURL&#45;&gt;TU -->
<g id="edge15" class="edge">
<title>ASKURL&#45;&gt;TU</title>
<path fill="none" stroke="#7d8a99" stroke-width="1.1" d="M705,-313.01C717.97,-301.64 733.56,-289.77 749.52,-281.72 769.86,-271.46 823.98,-258.88 866.37,-250.03"/>
<polygon fill="#7d8a99" stroke="#7d8a99" stroke-width="1.1" points="866.98,-253.48 876.07,-248.03 865.57,-246.62 866.98,-253.48"/>
<text text-anchor="middle" x="776.15" y="-282.92" font-family="Helvetica,sans-Serif" font-size="9.00" fill="#aab6c2">doesn&#39;t know</text>
</g>
<!-- CMATCH&#45;&gt;P1 -->
<g id="edge19" class="edge">
<title>CMATCH&#45;&gt;P1</title>
<path fill="none" stroke="#c97a7a" stroke-width="1.1" d="M527.06,-150.16C538.82,-154.8 551.61,-159.29 563.77,-162.44 654.86,-186.03 921.61,-145.56 983.77,-216.19 996.56,-230.71 994.54,-243.65 983.77,-259.72 969.46,-281.08 948.13,-263.22 930.27,-281.72 887.18,-326.36 926.82,-369.96 881.77,-412.63 867.84,-425.83 849.89,-434.96 831.59,-441.28"/>
<polygon fill="#c97a7a" stroke="#c97a7a" stroke-width="1.1" points="830.57,-437.93 822.08,-444.27 832.67,-444.61 830.57,-437.93"/>
<text text-anchor="middle" x="962.52" y="-282.92" font-family="Helvetica,sans-Serif" font-size="9.00" fill="#e6a6a6">no &#160;(back&#45;edge)</text>
</g>
<!-- CMATCH&#45;&gt;P1 -->
<g id="edge20" class="edge">
<title>CMATCH&#45;&gt;P1</title>
<path fill="none" stroke="#c97a7a" stroke-width="1.1" d="M526.49,-150.6C538.37,-155.29 551.35,-159.7 563.77,-162.44 736.33,-200.56 792.04,-131.92 960.77,-184.44 986.63,-192.49 999.52,-192.57 1012.77,-216.19 1060.91,-301.98 992.15,-357.35 910.77,-412.63 887.38,-428.52 858.51,-438.5 831.39,-444.78"/>
<polygon fill="#c97a7a" stroke="#c97a7a" stroke-width="1.1" points="830.96,-441.29 821.92,-446.82 832.44,-448.13 830.96,-441.29"/>
<text text-anchor="middle" x="1049.25" y="-282.92" font-family="Helvetica,sans-Serif" font-size="9.00" fill="#e6a6a6">gives URL</text>
</g>
<!-- CMATCH&#45;&gt;P3 -->
<g id="edge18" class="edge">
<title>CMATCH&#45;&gt;P3</title>
<path fill="none" stroke="#7d8a99" stroke-width="1.1" d="M499.25,-162.63C502.56,-172.78 504.09,-183.98 500.77,-194.19 499.45,-198.27 497.58,-202.28 495.4,-206.12"/>
<polygon fill="#7d8a99" stroke="#7d8a99" stroke-width="1.1" points="492.53,-204.11 490,-214.4 498.39,-207.94 492.53,-204.11"/>
<text text-anchor="middle" x="509.61" y="-185.64" font-family="Helvetica,sans-Serif" font-size="9.00" fill="#aab6c2">yes</text>
</g>
</g>
</svg>
